PathFileType	4	(X/Y/Z)	C:/Users/beibeiliu/ov580/test_trc/User2\sequence.1_training_dense_right.trc
DataRate	CameraRate	NumFrames	NumMarkers	Units	OrigDataRate	OrigDataStartFrame	OrigNumFrames
120	120	16	19	mm	120	170	338
Frame#	Time	ThumbCMC			ThumbMCP			ThumbIP			ThumbTip			IndexMCP			IndexPIP			IndexTip			MiddleMCP			MiddlePIP			MiddleTip			RingMCP			RingPIP			RingTip			PinkyMCP			PinkyPIP			PinkyTip			BackHand1			BackHand2			BackHand3	
		X0	Y0	Z0	X1	Y1	Z1	X2	Y2	Z2	X3	Y3	Z3	X4	Y4	Z4	X5	Y5	Z5	X6	Y6	Z6	X7	Y7	Z7	X8	Y8	Z8	X9	Y9	Z9	X10	Y10	Z10	X11	Y11	Z11	X12	Y12	Z12	X13	Y13	Z13	X14	Y14	Z14	X15	Y15	Z15	X16	Y16	Z16	X17	Y17	Z17	X18	Y18	Z18	
169	1.40833	183.234	10.9501	51.9978	189.05	24.6234	23.6579	187.683	39.2202	-5.15464	187.135	54.0728	-28.7663	121.713	8.40144	-15.4475	111.894	16.7723	-36.3953	96.922	28.3881	-57.5072	100.294	0.620312	-5.70143	78.3085	11.7648	-31.0865	56.0828	24.1951	-50.046	80.6239	0.32	14.9302	58.9793	7.64917	-5.85329	40.9926	18.5819	-26.7446	67.6561	2.53036	42.8271	50.3552	8.69163	32.3135	27.9871	12.0671	13.2117	114.467	-19.3266	55.9589	137.913	-26.1329	82.7613	154.135	-15.6643	51.5714	
170	1.41667	180.298	13.3263	48.4884	190.06	28.6801	22.5516	186.343	44.7366	-9.83466	181.849	58.8554	-24.2812	123.685	12.3017	-12.2719	109.44	21.6158	-33.8302	89.9643	37.0214	-58.0535	95.8507	4.94061	-3.5519	75.667	18.7309	-29.3633	51.779	32.6008	-46.2243	81.4601	3.85159	14.5518	61.3234	11.0376	-0.0567804	38.3566	22.0558	-20.8818	70.561	4.27071	44.4907	47.441	11.6994	31.204	24.189	14.5644	19.9945	114.963	-15.7359	55.6712	137.41	-26.8371	79.9848	153.805	-14.3149	51.3735	
171	1.425	183.747	16.5969	46.7353	186.669	31.3397	25.1635	181.051	49.1604	-6.19055	178.95	64.4495	-24.1467	122.111	18.0225	-12.83	105.636	28.8768	-33.0562	87.9373	44.8216	-52.0018	93.7802	10.3077	-4.13139	70.655	23.0151	-22.4176	48.2191	37.686	-40.0247	79.2947	4.80044	20.6272	58.7306	15.3601	0.723495	34.7605	25.693	-15.6288	69.4781	4.18214	46.5154	50.7038	11.3789	38.8446	24.8978	15.269	24.9069	119.831	-15.0386	56.0033	137.498	-26.0599	78.7256	158.747	-12.5565	47.2596	
172	1.43333	182.399	20.7411	48.2177	186.365	37.9295	24.9884	183.422	57.8744	-6.1213	175.351	72.7751	-23.6491	123.299	24.3722	-9.84284	105.222	38.6022	-31.4679	83.8187	53.4994	-47.8059	96.1523	15.4999	-2.0184	71.7332	29.9747	-20.7705	46.3262	42.6073	-31.0112	79.0858	8.65655	20.3445	58.9194	16.2042	9.37932	37.786	29.7081	-9.51348	72.9703	3.82197	55.3183	47.9697	10.9559	44.6535	26.6091	17.1531	30.7873	120.854	-13.3072	55.6279	142.386	-24.4455	76.7979	157.301	-10.3705	48.3826	
173	1.44167	183.148	25.359	50.5083	184.412	44.7798	27.5622	180.76	66.0836	-2.62342	172.536	83.6567	-20.0767	120.057	30.9581	-10.008	100.893	41.6259	-25.3854	77.202	56.2029	-38.5723	93.2071	16.4556	2.56717	70.4568	30.2775	-14.7844	42.3878	45.0558	-26.1932	81.0409	8.0798	24.2723	59.2914	17.4579	10.8962	33.281	28.0323	-3.74108	75.2345	1.95851	57.0073	53.3227	8.78781	46.6293	29.1189	10.0028	35.5431	126.199	-11.7086	57.4428	148.132	-25.9666	76.9967	162.859	-3.64757	43.9927	
174	1.45	185.463	33.1866	51.673	181.383	54.7373	27.3212	175.783	76.0495	5.59855	167.01	95.478	-12.8017	118.092	34.5858	-7.40996	98.9203	46.3847	-22.6055	72.3754	58.8578	-35.5917	94.7673	15.4801	5.74694	70.2774	27.3167	-8.60942	42.7402	40.9929	-24.2718	82.8906	4.44734	25.5191	55.7182	11.986	12.2228	31.6703	18.4969	0.829772	77.8191	-2.33982	54.9709	54.6959	1.93777	48.6208	30.1431	2.87037	37.0931	130.535	-13.7476	54.1704	153.098	-24.2577	77.0856	165.419	0.778485	46.2153	
175	1.45833	182.423	41.9147	53.2883	177.346	64.9231	31.731	167.79	87.5951	8.44408	154.645	102.632	-1.72927	117.409	36.3063	-3.34854	95.8147	46.5614	-20.1479	70.3503	59.5356	-33.8731	98.5084	16.024	3.96033	67.8185	24.547	-12.7105	40.8181	29.478	-19.4383	84.7129	-0.204927	23.2724	60.9231	4.5044	11.0755	38.3314	9.47302	0.85919	79.4328	-10.6769	51.409	57.8594	-7.07083	43.6828	37.2926	-12.9889	36.7626	136.368	-15.5456	55.2573	162.037	-18.7924	74.1807	167.331	4.96997	44.0108	
176	1.46667	178.65	48.5093	57.2532	171.482	71.7003	36.3361	156.481	94.9978	13.0744	140.588	107.772	3.19585	113.343	36.4225	-2.95168	93.5365	47.1252	-19.3783	69.6426	54.1837	-30.9357	97.1074	12.971	2.17122	70.0156	18.552	-12.1782	40.6744	20.1308	-21.9544	90.6237	-3.27602	17.1421	70.044	-2.55933	8.22769	39.9577	-2.56415	-5.14289	88.1598	-18.1283	47.0502	65.3509	-21.2596	43.2517	44.8895	-26.2742	33.0923	138.618	-12.6081	49.8804	168.705	-17.1539	71.3154	168.665	13.5597	45.4336	
177	1.475	175.08	55.8896	61.2788	164.808	79.7809	41.8388	142.827	95.032	19.0474	131.728	115.204	8.2037	113.275	40.545	-3.26739	87.4621	41.7535	-18.1124	64.718	46.4336	-29.7536	102.188	10.1637	3.77782	71.6357	15.0487	-14.2966	41.2811	12.2565	-26.9609	95.7155	-11.6137	18.4987	73.3414	-12.6032	5.69672	46.9139	-11.4968	-8.77028	95.842	-25.779	46.0023	75.0015	-27.6092	35.1037	51.5394	-34.5535	21.7282	148.688	-10.7216	50.1807	173.83	-14.3684	70.0223	172.422	19.7092	45.7336	
178	1.48333	168.293	57.1603	65.3511	153.728	82.1702	43.9066	134.234	101.544	23.9474	118.11	114.439	13.1568	113.043	39.5784	0.549306	88.7463	39.2731	-16.7222	61.7922	40.8281	-31.129	103.556	10.0898	2.12936	76.5705	9.35932	-13.8879	43.486	4.44552	-29.4068	99.0066	-11.4577	12.4586	78.1079	-18.9806	2.87418	53.0126	-20.3076	-11.6176	103.783	-27.3171	39.5058	81.8796	-34.6458	28.659	64.2259	-45.7187	16.755	149.586	-7.95616	47.7919	175.554	-10.8432	66.688	168.055	22.5326	47.4792	
179	1.49167	160.937	61.165	65.3984	145.774	82.0423	50.6758	123.999	97.5665	33.3467	104.42	108.979	20.4807	107.385	35.4966	-2.10026	85.6176	40.1057	-17.0126	63.0484	32.7815	-28.6188	106.38	8.73556	0.321385	79.4659	2.28546	-14.5079	51.0528	-3.57034	-30.2189	104.465	-16.897	11.5698	82.2287	-19.4023	-3.49439	57.4996	-25.616	-18.8346	106.935	-31.3898	32.3476	89.451	-39.5806	22.9826	72.0594	-53.083	8.01181	153.363	-8.15909	47.0141	178.947	-6.47533	67.9784	168.387	28.2421	47.7775	
180	1.5	154.376	60.2168	70.5943	137.631	83.2425	57.6788	111.404	95.3054	35.9998	92.4001	109.291	26.1842	108.351	34.4192	3.20464	83.0662	32.2503	-16.7326	60.144	30.7461	-31.4988	105.281	7.00489	-1.35745	80.1817	1.41822	-17.9113	54.394	-9.80043	-34.4267	108.889	-13.613	9.28273	86.1154	-26.2405	-7.47434	66.7155	-31.2871	-21.7271	115.794	-33.397	32.4824	96.3497	-45.4672	18.4699	81.3647	-58.5251	4.18805	154.498	-8.21871	42.3289	183.273	-2.11532	67.0169	167.22	31.3622	49.1828	
181	1.50833	146.873	61.0967	72.0209	127.069	81.0499	59.1737	102.322	93.2463	43.3216	80.9417	100.868	31.7312	104.496	35.2638	3.28207	80.3854	30.3893	-15.9463	59.4852	24.7114	-29.6992	108.542	4.39183	-0.399192	82.7874	-3.40042	-19.6714	57.5533	-10.9861	-38.9266	114.144	-20.0792	9.09007	92.789	-30.1523	-8.35925	72.1408	-32.8494	-26.5153	119.183	-38.6961	28.4038	101.08	-48.3907	14.4059	92.588	-58.7471	-0.592371	157.54	-0.837988	44.6463	181.18	3.42663	64.6393	162.727	32.7211	52.4514	
182	1.51667	142.563	63.3001	75.1959	121.081	77.9679	65.3457	90.7096	90.4764	42.5922	69.7821	96.5173	33.807	100.62	34.1099	1.20702	80.9179	26.9876	-15.474	60.7575	18.9636	-29.4453	109.417	6.13526	-0.321386	87.3665	-6.24979	-19.0465	61.3537	-13.2271	-42.2845	117.458	-15.9515	7.65874	98.7651	-30.1479	-11.8918	78.9723	-40.1566	-30.3537	124.487	-38.4414	24.8065	107.986	-49.0204	10.5438	101.642	-59.34	-5.49448	157.132	-0.636874	41.0504	182.149	3.62273	67.7674	161.498	37.4205	51.3314	
183	1.525	137.365	59.2409	77.3266	111.605	74.8176	65.777	83.7226	86.051	48.5906	60.9197	90.4771	38.3849	103.059	31.2775	5.12224	79.5944	28.6018	-13.615	60.4002	21.5935	-30.5085	110.905	2.92412	-1.39419	88.425	-7.4401	-23.5792	66.7784	-19.532	-43.7638	119.061	-18.6039	2.43016	102.519	-29.4137	-15.6267	85.8728	-37.7673	-34.225	131.385	-38.4894	27.0492	117.642	-51.5297	8.50398	108.816	-61.4918	-13.6881	158.857	1.16038	42.4232	182.251	8.25317	68.5469	156.953	39.5821	52.3101	
184	1.53333	130.221	59.9948	77.5816	105.164	69.2916	66.0917	75.5174	78.5003	50.0049	54.5572	79.5111	40.4903	97.7137	32.4351	4.23289	77.6896	25.3238	-15.7251	61.0396	16.3048	-31.9705	110.836	3.24937	-4.13132	93.1961	-8.52152	-22.6615	71.6008	-19.737	-48.5514	122.958	-15.9583	4.2922	107.532	-26.2291	-17.2879	93.1231	-39.5309	-38.7093	134.737	-34.1563	24.6142	127.269	-52.8292	5.68359	121.188	-63.8616	-13.7396	157.586	4.35714	44.8936	178.68	14.1415	66.6768	153.744	39.5664	55.722	
